<svg width="10" height="11" viewBox="0 0 10 11" fill="none" xmlns="http://www.w3.org/2000/svg">
<g clip-path="url(#clip0)">
<path fill-rule="evenodd" clip-rule="evenodd" d="M6.18644 5.35712L9.74576 1.72302C10.0847 1.37691 10.0847 0.857758 9.74576 0.511654C9.40678 0.165549 8.8983 0.165549 8.55932 0.511654L5 4.14575L1.44068 0.511654C1.10169 0.165549 0.59322 0.165549 0.254237 0.511654C-0.0847458 0.857758 -0.0847458 1.37691 0.254237 1.72302L3.81356 5.35712L0.254237 8.99121C-0.0847458 9.33732 -0.0847458 9.85647 0.254237 10.2026C0.59322 10.5487 1.10169 10.5487 1.44068 10.2026L5 6.56848L8.55932 10.2026C8.8983 10.5487 9.40678 10.5487 9.74576 10.2026C10.0847 9.85647 10.0847 9.33732 9.74576 8.99121L6.18644 5.35712Z" fill="#B0B0B0"/>
</g>
<defs>
<clipPath id="clip0">
<rect width="10" height="10.2101" fill="white" transform="translate(0 0.252075)"/>
</clipPath>
</defs>
</svg>
